<svg id="bxs-file-pdf" xmlns="http://www.w3.org/2000/svg" width="61.44" height="76.801" viewBox="0 0 61.44 76.801">
  <path id="Trazado_9261" data-name="Trazado 9261" d="M13.27,22.02a5.751,5.751,0,0,0-1.428.138v4.524a5.224,5.224,0,0,0,1.16.09c1.838,0,2.972-.929,2.972-2.5,0-1.405-.975-2.25-2.7-2.25Zm13.391.046A7.062,7.062,0,0,0,25.1,22.2V32.227a6.263,6.263,0,0,0,1.2.069c3.136.023,5.179-1.7,5.179-5.361.023-3.187-1.838-4.869-4.818-4.869Z" transform="translate(3.114 26.672)" fill="#242424"/>
  <path id="Trazado_9262" data-name="Trazado 9262" d="M44.4,3H13.68A7.68,7.68,0,0,0,6,10.68V72.12a7.68,7.68,0,0,0,7.68,7.68H59.76a7.68,7.68,0,0,0,7.68-7.68V26.04ZM27.112,57.49A7.119,7.119,0,0,1,22.136,59.1a8.564,8.564,0,0,1-1.183-.069V64.51H17.52V49.4a29.022,29.022,0,0,1,4.68-.315,7.352,7.352,0,0,1,4.685,1.226,4.492,4.492,0,0,1,1.636,3.546,4.935,4.935,0,0,1-1.408,3.64Zm14.618,5.2c-1.613,1.339-4.065,1.976-7.066,1.976a29.569,29.569,0,0,1-3.932-.23V49.4a30.517,30.517,0,0,1,4.682-.317c2.906,0,4.8.522,6.272,1.636a6.78,6.78,0,0,1,2.593,5.775,7.765,7.765,0,0,1-2.547,6.2ZM55.92,52.037H50.037v3.5h5.5v2.819h-5.5v6.159H46.558V49.2H55.92ZM44.4,29.88H40.56V10.68l19.2,19.2Z" transform="translate(-6 -3)" fill="#242424"/>
</svg>
