<svg id="Componente_54_2" data-name="Componente 54 – 2" xmlns="http://www.w3.org/2000/svg" width="28.982" height="32.201" viewBox="0 0 28.982 32.201">
  <g id="noun-notification-5204004" transform="translate(-139.996 -46.668)">
    <path id="Trazado_9332" data-name="Trazado 9332" d="M154.487,46.668a1.61,1.61,0,0,1,1.61,1.61V50a11.273,11.273,0,0,1,9.66,11.157V63.1a12.31,12.31,0,0,0,1.622,6.107l1.386,2.426a1.61,1.61,0,0,1-1.4,2.409H141.606a1.61,1.61,0,0,1-1.4-2.409l1.386-2.426a12.31,12.31,0,0,0,1.622-6.107V61.159A11.273,11.273,0,0,1,152.877,50V48.278a1.61,1.61,0,0,1,1.61-1.61Zm-8.051,14.491a8.051,8.051,0,0,1,16.1,0V63.1a15.531,15.531,0,0,0,2.046,7.7l.009.017H144.381l.01-.017a15.528,15.528,0,0,0,2.046-7.7Z" fill="#fff" fill-rule="evenodd"/>
    <path id="Trazado_9333" data-name="Trazado 9333" d="M306.552,469.886a3.22,3.22,0,0,0,3.22-3.22h-6.44A3.22,3.22,0,0,0,306.552,469.886Z" transform="translate(-152.065 -391.017)" fill="#fff"/>
  </g>
</svg>
