<svg xmlns="http://www.w3.org/2000/svg" width="27.8" height="27.8" viewBox="0 0 27.8 27.8">
  <path id="Instagram" d="M1428.183-622.2a8.181,8.181,0,0,1-5.829-2.186,8.065,8.065,0,0,1-2.354-6v-11.49c0-4.876,3.25-8.127,8.127-8.127h11.546a7.981,7.981,0,0,1,5.885,2.3,8.035,8.035,0,0,1,2.242,5.829v11.546a8.025,8.025,0,0,1-2.3,5.941,8.278,8.278,0,0,1-5.885,2.186Zm-4.091-23.764a5.587,5.587,0,0,0-1.513,4.091v11.49a5.633,5.633,0,0,0,1.513,4.147,5.793,5.793,0,0,0,4.091,1.457h11.434a5.794,5.794,0,0,0,4.092-1.457,5.477,5.477,0,0,0,1.625-4.091v-11.546a5.783,5.783,0,0,0-1.513-4.035,5.587,5.587,0,0,0-4.091-1.513h-11.546A5.7,5.7,0,0,0,1424.092-645.964Zm2.634,9.808a7.188,7.188,0,0,1,7.174-7.174,7.224,7.224,0,0,1,7.174,7.174,7.188,7.188,0,0,1-7.174,7.174A7.152,7.152,0,0,1,1426.726-636.156Zm2.578,0a4.617,4.617,0,0,0,4.6,4.6,4.617,4.617,0,0,0,4.6-4.6,4.617,4.617,0,0,0-4.6-4.6A4.617,4.617,0,0,0,1429.3-636.156Zm10.425-7.342a1.625,1.625,0,0,1,1.625-1.626,1.625,1.625,0,0,1,1.625,1.626,1.625,1.625,0,0,1-1.625,1.625A1.625,1.625,0,0,1,1439.729-643.5Z" transform="translate(-1420 650)" fill="#fff"/>
</svg>
