<svg xmlns="http://www.w3.org/2000/svg" xmlns:xlink="http://www.w3.org/1999/xlink" width="153.5" height="50.453" viewBox="0 0 153.5 50.453">
  <defs>
    <linearGradient id="linear-gradient" x1="0.5" y1="0.002" x2="0.5" y2="0.954" gradientUnits="objectBoundingBox">
      <stop offset="0" stop-color="#e73168"/>
      <stop offset="1" stop-color="#ec6b38"/>
    </linearGradient>
  </defs>
  <g id="Grupo_150" data-name="Grupo 150" transform="translate(0 -246.08)">
    <path id="Trazado_9264" data-name="Trazado 9264" d="M11.658,273.142a.754.754,0,0,0-.673-.287H4.958a.653.653,0,0,0-.412.155.507.507,0,0,0-.2.42,1.429,1.429,0,0,0,.087.354l5.369,10.974L.174,296.705a.605.605,0,0,0-.174.442c0,.325.145.486.434.486h5.9a.915.915,0,0,0,.316-.056c.09-.043.156-.078.2-.1a1.084,1.084,0,0,0,.112-.082l9.914-12.9Z" transform="translate(0 -18.441)" fill="url(#linear-gradient)"/>
    <g id="Grupo_149" data-name="Grupo 149" transform="translate(22.22 246.08)">
      <g id="Grupo_146" data-name="Grupo 146" transform="translate(0 0)">
        <path id="Trazado_9265" data-name="Trazado 9265" d="M96.544,249.945a.191.191,0,0,1-.021.085.291.291,0,0,0-.022.129l-.736,3.992a1.211,1.211,0,0,1-.368.6.911.911,0,0,1-.627.257H85.98a3.417,3.417,0,0,0-2.252.626,3.887,3.887,0,0,0-1.039,2.311L82,261.834H93.21a.608.608,0,0,1,.693.682v.171l-.693,4.047a1.14,1.14,0,0,1-.389.6.988.988,0,0,1-.649.256H80.957l-2.209,12.533a1.155,1.155,0,0,1-.389.6.989.989,0,0,1-.65.257H72.081a.609.609,0,0,1-.693-.687v-.172l3.94-22.19a13.7,13.7,0,0,1,1.645-4.872,8.2,8.2,0,0,1,2.728-2.789A9.675,9.675,0,0,1,83.273,249a28.129,28.129,0,0,1,4.222-.3q1.775,0,3.075.064t2.273.15q.974.085,1.667.193l1.256.193Q96.544,249.43,96.544,249.945Z" transform="translate(-71.388 -247.885)" fill="#fff"/>
        <path id="Trazado_9266" data-name="Trazado 9266" d="M176.68,274.285l-4.07,22.834a1.2,1.2,0,0,1-.368.6.91.91,0,0,1-.628.257h-4.85q-.736,0-.736-.687v-.172l.217-1.03a18.71,18.71,0,0,1-3.075,1.631,9.989,9.989,0,0,1-3.81.643,6.486,6.486,0,0,1-5-1.888,7.464,7.464,0,0,1-1.754-5.28,14.562,14.562,0,0,1,.259-2.618l2.511-14.293a1.216,1.216,0,0,1,.412-.623,1.023,1.023,0,0,1,.671-.279H161.7a.628.628,0,0,1,.519.214.8.8,0,0,1,.173.515v.172l-2.511,14.293a11.565,11.565,0,0,0-.217,1.974,1.927,1.927,0,0,0,.585,1.588,3.446,3.446,0,0,0,2.1.472,4.358,4.358,0,0,0,.866-.108,11,11,0,0,0,1.126-.3q.606-.193,1.213-.451a10.159,10.159,0,0,0,1.125-.558l2.988-16.911a1.263,1.263,0,0,1,.389-.623.947.947,0,0,1,.65-.279h5.239a.7.7,0,0,1,.541.214.8.8,0,0,1,.195.558Z" transform="translate(-127.327 -264.886)" fill="#fff"/>
        <path id="Trazado_9267" data-name="Trazado 9267" d="M250.414,274.27l-.606,3.5q-.13.818-.866.818h-.13q-.433-.085-1.3-.172t-1.884-.171q-1.017-.086-2.056-.15t-1.862-.064h-.173q-.433,0-.844.021a2.205,2.205,0,0,0-.758.172,1.333,1.333,0,0,0-.563.449,1.444,1.444,0,0,0-.217.857q0,.685,1.039,1.328L245,283.9a7.223,7.223,0,0,1,2.728,2.677,5.927,5.927,0,0,1,.693,2.633,8,8,0,0,1-.887,3.92,7.526,7.526,0,0,1-2.36,2.612,9.675,9.675,0,0,1-3.42,1.435,18.732,18.732,0,0,1-4.027.427,36.477,36.477,0,0,1-3.961-.236,21.724,21.724,0,0,1-3.746-.708.8.8,0,0,1-.649-.773v-.214l.649-3.476a.892.892,0,0,1,1-.815h.13q.865.129,1.84.236t1.949.194q.974.086,1.883.129t1.6.043a6.054,6.054,0,0,0,1.991-.3q.866-.3.866-1.631a1.464,1.464,0,0,0-.281-.837,3.626,3.626,0,0,0-1.018-.88l-5.066-3.219a5.756,5.756,0,0,1-2.144-2.318,6.285,6.285,0,0,1-.671-2.789,7.5,7.5,0,0,1,.844-3.755,6.514,6.514,0,0,1,2.273-2.361,9.836,9.836,0,0,1,3.248-1.245,19.138,19.138,0,0,1,3.766-.365,27.17,27.17,0,0,1,4.114.281,31.949,31.949,0,0,1,3.421.714.759.759,0,0,1,.649.779Z" transform="translate(-180.198 -264.125)" fill="#fff"/>
        <path id="Trazado_9268" data-name="Trazado 9268" d="M310.381,255.437l-4.07,22.877a1.158,1.158,0,0,1-.39.6.988.988,0,0,1-.649.257H299.99a.609.609,0,0,1-.693-.687v-.172l4.07-22.877a1.2,1.2,0,0,1,.368-.6.907.907,0,0,1,.628-.257h5.283a.648.648,0,0,1,.736.73Zm1.645-8.492-.693,4.021a1.167,1.167,0,0,1-.39.606.984.984,0,0,1-.649.259h-5.628a.612.612,0,0,1-.693-.692v-.173l.693-4.021a1.153,1.153,0,0,1,.389-.605.979.979,0,0,1,.649-.26h5.629a.612.612,0,0,1,.693.692Z" transform="translate(-228.359 -246.08)" fill="#fff"/>
        <path id="Trazado_9269" data-name="Trazado 9269" d="M361.79,280.95a11.863,11.863,0,0,1-.087,1.352c-.059.5-.115.88-.173,1.137l-.563,3a14.947,14.947,0,0,1-4.049,8.306q-3.01,2.855-8.767,2.854a10.589,10.589,0,0,1-3.9-.665,8.349,8.349,0,0,1-2.858-1.824,7.407,7.407,0,0,1-1.753-2.769,10.183,10.183,0,0,1-.585-3.5q0-.6.043-1.2a8.559,8.559,0,0,1,.173-1.2l.563-3q1.126-5.837,4.287-8.5t8.53-2.661q4.417,0,6.777,2.361A8.531,8.531,0,0,1,361.79,280.95Zm-7.058.515q0-3.262-3.145-3.262a4.134,4.134,0,0,0-3.08,1.2,7.678,7.678,0,0,0-1.7,4.034l-.56,3c-.059.4-.108.766-.152,1.095a7.344,7.344,0,0,0-.065.966,3.339,3.339,0,0,0,.775,2.446,3.3,3.3,0,0,0,2.413.773,3.857,3.857,0,0,0,3.187-1.331,8.729,8.729,0,0,0,1.551-3.949l.56-3A11.582,11.582,0,0,0,354.732,281.466Z" transform="translate(-255.745 -264.125)" fill="#fff"/>
        <path id="Trazado_9270" data-name="Trazado 9270" d="M439.9,279.406a14.572,14.572,0,0,1-.26,2.618l-2.511,14.293a1.219,1.219,0,0,1-.411.622,1.025,1.025,0,0,1-.672.279H430.8a.622.622,0,0,1-.518-.215.792.792,0,0,1-.173-.514v-.172l2.511-14.293a11.3,11.3,0,0,0,.217-1.889,1.848,1.848,0,0,0-.671-1.652,2.923,2.923,0,0,0-1.666-.45,7.81,7.81,0,0,0-2.6.472,12.612,12.612,0,0,0-2.079.9l-2.987,16.911a1.264,1.264,0,0,1-.39.622.945.945,0,0,1-.649.279h-5.239a.692.692,0,0,1-.542-.215.8.8,0,0,1-.194-.558v-.129l4.07-22.834a1.2,1.2,0,0,1,.368-.6.909.909,0,0,1,.628-.257h4.72a.648.648,0,0,1,.735.73v.129l-.173,1.03a10.6,10.6,0,0,1,3.247-1.674,11.662,11.662,0,0,1,3.507-.558,8.721,8.721,0,0,1,2.663.408,5.842,5.842,0,0,1,3.746,3.477A8.435,8.435,0,0,1,439.9,279.406Z" transform="translate(-308.618 -264.125)" fill="#fff"/>
      </g>
      <g id="Grupo_148" data-name="Grupo 148" transform="translate(85.347 37.891)">
        <g id="Grupo_147" data-name="Grupo 147">
          <path id="Trazado_9271" data-name="Trazado 9271" d="M353.66,377.7h-1.84a.279.279,0,0,1-.263-.237l-.473-2.155h-2.694l-.473,2.155a.279.279,0,0,1-.263.237h-1.84a.2.2,0,0,1-.223-.21.581.581,0,0,0,.013-.066l1.958-8.147a2.351,2.351,0,0,1,4.349,0l1.958,8.147a.581.581,0,0,0,.013.066A.2.2,0,0,1,353.66,377.7Zm-3.745-7.818c-.026-.131-.052-.2-.171-.2s-.158.066-.184.2l-.8,3.627h1.958Z" transform="translate(-345.592 -367.816)" fill="#fff"/>
          <path id="Trazado_9272" data-name="Trazado 9272" d="M381.721,376.752l-.407.132a2.008,2.008,0,0,1,.289.972v.1c0,1.708-1.2,2.458-3.246,2.458a4,4,0,0,1-1.366-.2.326.326,0,0,0-.184.3c0,.21.079.3.394.368l1.485.328c2.286.5,3.075.854,3.075,2.116v.105c0,1.446-1.13,2.142-3.443,2.142-2.181,0-3.338-.762-3.338-2.142v-.105a1.79,1.79,0,0,1,.789-1.472,1.394,1.394,0,0,1-.67-1.222,1.411,1.411,0,0,1,.578-1.117,2.17,2.17,0,0,1-.6-1.564v-.1c0-1.485.985-2.483,3.285-2.483h3.272a.337.337,0,0,1,.329.341v.75C381.958,376.648,381.879,376.7,381.721,376.752Zm-2.129,6.583c0-.25-.171-.42-1.353-.683l-.972-.21a1.342,1.342,0,0,0-.263.894v.105c0,.447.3.67,1.314.67,1.078,0,1.275-.276,1.275-.67Zm-.065-5.479c0-.538-.237-.946-1.17-.946s-1.2.407-1.2.946v.1c0,.447.2.92,1.2.92.92,0,1.17-.355,1.17-.92Z" transform="translate(-365.833 -373.021)" fill="#fff"/>
          <path id="Trazado_9273" data-name="Trazado 9273" d="M406.526,379.568h-4.192v.026a1.255,1.255,0,0,0,1.353,1.432c.828,0,2-.066,2.523-.118h.039c.145,0,.25.066.25.21v1c0,.21-.053.3-.276.354a10.032,10.032,0,0,1-2.694.315,3.078,3.078,0,0,1-3.3-3.377v-.92a3.136,3.136,0,0,1,3.325-3.456c2.155,0,3.246,1.472,3.246,3.456v.762C406.8,379.45,406.7,379.568,406.526,379.568Zm-1.8-1.367c0-.972-.447-1.459-1.182-1.459s-1.209.5-1.209,1.459v.053h2.391Z" transform="translate(-383.225 -372.788)" fill="#fff"/>
          <path id="Trazado_9274" data-name="Trazado 9274" d="M431.968,382.669h-1.59a.275.275,0,0,1-.263-.276v-4.376c0-.919-.171-1.222-.972-1.222a2.819,2.819,0,0,0-1.235.421v5.177a.275.275,0,0,1-.263.276h-1.59a.286.286,0,0,1-.276-.276V375.4a.264.264,0,0,1,.263-.263h1.472a.264.264,0,0,1,.263.263v.315a3.309,3.309,0,0,1,2.142-.684c1.905,0,2.326,1.327,2.326,2.983v4.376A.287.287,0,0,1,431.968,382.669Z" transform="translate(-400.82 -372.788)" fill="#fff"/>
          <path id="Trazado_9275" data-name="Trazado 9275" d="M455.8,382.59a7.223,7.223,0,0,1-1.748.2c-1.853,0-3.061-1.182-3.061-3.324v-1.1c0-2.142,1.209-3.325,3.061-3.325a7.259,7.259,0,0,1,1.748.2c.2.053.276.105.276.3V376.7a.236.236,0,0,1-.25.223H455.8a12.619,12.619,0,0,0-1.6-.092c-.591,0-1.078.355-1.078,1.525v1.1c0,1.17.486,1.524,1.078,1.524a12.5,12.5,0,0,0,1.6-.092h.026a.236.236,0,0,1,.25.223v1.17C456.073,382.485,455.995,382.538,455.8,382.59Z" transform="translate(-418.183 -372.788)" fill="#fff"/>
          <path id="Trazado_9276" data-name="Trazado 9276" d="M477.191,375.675l-2.207,7.74c-.407,1.419-.946,2.142-2.878,2.142a6.853,6.853,0,0,1-1.59-.21c-.144-.052-.276-.092-.276-.237v-1.064a.253.253,0,0,1,.263-.25h.026c.434.026,1.209.1,1.643.1.473,0,.709-.158.867-.683l.118-.408h-.2c-.486,0-.893-.078-1.222-1.222L470,375.675a.256.256,0,0,1-.013-.092c0-.132.079-.21.263-.21H472a.28.28,0,0,1,.25.25l1.182,4.94c.04.184.079.25.158.25h.118l1.222-5.19a.294.294,0,0,1,.276-.25h1.747a.247.247,0,0,1,.25.237C477.2,375.636,477.191,375.649,477.191,375.675Z" transform="translate(-431.271 -373.021)" fill="#fff"/>
        </g>
      </g>
    </g>
  </g>
</svg>
