<svg id="Grupo_32" data-name="Grupo 32" xmlns="http://www.w3.org/2000/svg" width="138" height="45.358" viewBox="0 0 138 45.358">
  <g id="Grupo_7" data-name="Grupo 7">
    <g id="Grupo_6" data-name="Grupo 6" transform="translate(19.976)">
      <path id="Trazado_1" data-name="Trazado 1" d="M94,3.739a.173.173,0,0,1-.019.077.26.26,0,0,0-.02.116L93.3,7.521a1.086,1.086,0,0,1-.331.54.818.818,0,0,1-.564.231h-7.9a3.072,3.072,0,0,0-2.025.563,3.494,3.494,0,0,0-.934,2.078l-.623,3.495H91.006a.546.546,0,0,1,.623.613v.154l-.623,3.638a1.027,1.027,0,0,1-.35.536.89.89,0,0,1-.584.23H79.991L78.005,30.866a1.038,1.038,0,0,1-.35.541.89.89,0,0,1-.584.231h-5.06a.548.548,0,0,1-.623-.618v-.155L74.93,10.917a12.317,12.317,0,0,1,1.479-4.38,7.372,7.372,0,0,1,2.452-2.508A8.693,8.693,0,0,1,82.073,2.89a25.251,25.251,0,0,1,3.8-.27q1.6,0,2.764.058t2.043.135q.876.077,1.5.173L93.3,3.16Q94,3.276,94,3.739Z" transform="translate(-71.388 -1.887)" fill="#fff"/>
      <path id="Trazado_2" data-name="Trazado 2" d="M174.249,28.113l-3.659,20.528a1.083,1.083,0,0,1-.331.541.819.819,0,0,1-.564.231h-4.36q-.662,0-.662-.618v-.155l.195-.926a16.825,16.825,0,0,1-2.764,1.467,8.981,8.981,0,0,1-3.425.578,5.83,5.83,0,0,1-4.5-1.7,6.709,6.709,0,0,1-1.577-4.747,13.088,13.088,0,0,1,.233-2.353l2.258-12.85a1.1,1.1,0,0,1,.37-.56.921.921,0,0,1,.6-.251h4.71a.564.564,0,0,1,.467.193.717.717,0,0,1,.156.463v.154l-2.258,12.85a10.4,10.4,0,0,0-.195,1.775,1.732,1.732,0,0,0,.526,1.428,3.1,3.1,0,0,0,1.887.424,3.935,3.935,0,0,0,.778-.1,9.813,9.813,0,0,0,1.012-.27q.544-.173,1.09-.405a9.083,9.083,0,0,0,1.012-.5l2.686-15.2a1.138,1.138,0,0,1,.35-.56.852.852,0,0,1,.585-.251h4.71a.624.624,0,0,1,.486.193.719.719,0,0,1,.175.5Z" transform="translate(-129.879 -19.663)" fill="#fff"/>
      <path id="Trazado_3" data-name="Trazado 3" d="M248.289,27.988l-.545,3.149q-.117.736-.778.735h-.117q-.39-.077-1.168-.155t-1.694-.154q-.915-.077-1.849-.135t-1.674-.058h-.156q-.39,0-.759.019a1.976,1.976,0,0,0-.681.155,1.2,1.2,0,0,0-.506.4,1.3,1.3,0,0,0-.195.77q0,.616.934,1.193l4.321,2.734a6.492,6.492,0,0,1,2.452,2.407,5.329,5.329,0,0,1,.623,2.367,7.2,7.2,0,0,1-.8,3.524,6.768,6.768,0,0,1-2.122,2.349,8.7,8.7,0,0,1-3.075,1.29,16.859,16.859,0,0,1-3.621.384,32.8,32.8,0,0,1-3.561-.212,19.56,19.56,0,0,1-3.367-.637.715.715,0,0,1-.584-.695V47.23l.584-3.125a.8.8,0,0,1,.9-.733h.117q.778.116,1.654.212t1.752.174q.876.077,1.693.116t1.44.038a5.435,5.435,0,0,0,1.79-.271q.779-.269.779-1.466a1.316,1.316,0,0,0-.253-.753,3.263,3.263,0,0,0-.915-.791l-4.554-2.894a5.174,5.174,0,0,1-1.927-2.084,5.65,5.65,0,0,1-.6-2.508,6.749,6.749,0,0,1,.759-3.376,5.858,5.858,0,0,1,2.043-2.122,8.849,8.849,0,0,1,2.92-1.119,17.206,17.206,0,0,1,3.386-.328,24.392,24.392,0,0,1,3.7.253,28.738,28.738,0,0,1,3.075.641.683.683,0,0,1,.584.7Z" transform="translate(-185.164 -18.869)" fill="#fff"/>
      <path id="Trazado_4" data-name="Trazado 4" d="M309.262,8.412,305.6,28.979a1.041,1.041,0,0,1-.351.541.889.889,0,0,1-.584.231H299.92a.548.548,0,0,1-.623-.618v-.155l3.659-20.567a1.077,1.077,0,0,1,.331-.541.815.815,0,0,1,.564-.231H308.6a.583.583,0,0,1,.662.656ZM310.741.777l-.623,3.615a1.05,1.05,0,0,1-.351.545.884.884,0,0,1-.584.233h-5.06a.55.55,0,0,1-.623-.622V4.393l.623-3.615a1.039,1.039,0,0,1,.35-.544A.88.88,0,0,1,305.058,0h5.061a.55.55,0,0,1,.623.622Z" transform="translate(-235.523)" fill="#fff"/>
      <path id="Trazado_5" data-name="Trazado 5" d="M359.494,33.995a10.678,10.678,0,0,1-.078,1.216c-.053.45-.1.791-.156,1.022l-.506,2.7a13.438,13.438,0,0,1-3.64,7.467q-2.706,2.566-7.882,2.566a9.519,9.519,0,0,1-3.5-.6,7.5,7.5,0,0,1-2.569-1.64,6.655,6.655,0,0,1-1.576-2.489,9.157,9.157,0,0,1-.526-3.145q0-.54.039-1.081a7.682,7.682,0,0,1,.156-1.081l.506-2.7q1.012-5.248,3.854-7.64a11.525,11.525,0,0,1,7.668-2.393,8.245,8.245,0,0,1,6.092,2.122A7.67,7.67,0,0,1,359.494,33.995Zm-6.345.463q0-2.932-2.827-2.933a3.717,3.717,0,0,0-2.769,1.081,6.9,6.9,0,0,0-1.53,3.627l-.5,2.7c-.053.36-.1.689-.136.984a6.6,6.6,0,0,0-.059.868,3,3,0,0,0,.7,2.2,2.962,2.962,0,0,0,2.169.695,3.467,3.467,0,0,0,2.865-1.2,7.847,7.847,0,0,0,1.394-3.55l.5-2.7A10.407,10.407,0,0,0,353.149,34.458Z" transform="translate(-264.158 -18.869)" fill="#fff"/>
      <path id="Trazado_6" data-name="Trazado 6" d="M437.467,32.606a13.1,13.1,0,0,1-.234,2.354l-2.257,12.85a1.094,1.094,0,0,1-.369.56.921.921,0,0,1-.6.251h-4.71a.559.559,0,0,1-.466-.193.713.713,0,0,1-.156-.463v-.155l2.257-12.85a10.162,10.162,0,0,0,.2-1.7,1.661,1.661,0,0,0-.6-1.486,2.628,2.628,0,0,0-1.5-.4,7.029,7.029,0,0,0-2.336.424,11.389,11.389,0,0,0-1.869.81l-2.686,15.2a1.134,1.134,0,0,1-.351.56.849.849,0,0,1-.583.251h-4.71a.622.622,0,0,1-.487-.193.716.716,0,0,1-.175-.5v-.116l3.659-20.528a1.076,1.076,0,0,1,.331-.541.817.817,0,0,1,.565-.231h4.243a.582.582,0,0,1,.661.656v.116l-.156.926a9.531,9.531,0,0,1,2.919-1.505,10.485,10.485,0,0,1,3.153-.5,7.84,7.84,0,0,1,2.394.367,5.252,5.252,0,0,1,3.368,3.126A7.583,7.583,0,0,1,437.467,32.606Z" transform="translate(-319.443 -18.869)" fill="#fff"/>
    </g>
    <path id="Trazado_7" data-name="Trazado 7" d="M10.481,27.032a.679.679,0,0,0-.6-.258H4.457a.588.588,0,0,0-.37.139.457.457,0,0,0-.176.378,1.29,1.29,0,0,0,.078.318l4.827,9.866L.156,48.216a.545.545,0,0,0-.156.4c0,.292.13.437.39.437H5.7A.816.816,0,0,0,5.983,49c.081-.039.14-.07.181-.094a1.013,1.013,0,0,0,.1-.074l8.913-11.6Z" transform="translate(0 -19.282)" fill="#fff"/>
  </g>
  <g id="Grupo_9" data-name="Grupo 9" transform="translate(96.705 34.065)">
    <g id="Grupo_8" data-name="Grupo 8">
      <path id="Trazado_8" data-name="Trazado 8" d="M352.845,130.62h-1.654a.251.251,0,0,1-.236-.213l-.425-1.937h-2.422l-.425,1.937a.251.251,0,0,1-.236.213h-1.654a.183.183,0,0,1-.2-.189.517.517,0,0,0,.012-.059l1.76-7.324a2.113,2.113,0,0,1,3.91,0l1.76,7.324a.515.515,0,0,0,.012.059A.183.183,0,0,1,352.845,130.62Zm-3.367-7.029c-.023-.118-.047-.177-.153-.177s-.142.059-.165.177l-.721,3.261h1.76Z" transform="translate(-345.592 -121.736)" fill="#fff"/>
      <path id="Trazado_9" data-name="Trazado 9" d="M381.041,130.533l-.366.118a1.8,1.8,0,0,1,.26.874v.094c0,1.536-1.075,2.209-2.918,2.209a3.6,3.6,0,0,1-1.228-.177.293.293,0,0,0-.165.271c0,.189.071.272.354.331l1.335.3c2.055.449,2.764.768,2.764,1.9v.094c0,1.3-1.016,1.926-3.1,1.926-1.961,0-3-.685-3-1.926v-.094a1.609,1.609,0,0,1,.709-1.323,1.254,1.254,0,0,1-.6-1.1,1.268,1.268,0,0,1,.52-1,1.951,1.951,0,0,1-.543-1.406v-.094c0-1.335.886-2.233,2.953-2.233h2.942a.3.3,0,0,1,.3.307v.674C381.253,130.439,381.182,130.486,381.041,130.533Zm-1.914,5.919c0-.224-.153-.378-1.217-.614l-.874-.189a1.206,1.206,0,0,0-.236.8v.094c0,.4.272.6,1.181.6.969,0,1.146-.248,1.146-.6Zm-.059-4.926c0-.484-.213-.85-1.052-.85s-1.075.366-1.075.85v.094c0,.4.177.827,1.075.827.827,0,1.052-.319,1.052-.827Z" transform="translate(-366.757 -127.178)" fill="#fff"/>
      <path id="Trazado_10" data-name="Trazado 10" d="M405.891,133.031h-3.768v.024a1.129,1.129,0,0,0,1.217,1.287c.744,0,1.8-.059,2.268-.107h.035c.13,0,.225.059.225.189v.9c0,.189-.047.271-.248.319a9.031,9.031,0,0,1-2.422.283,2.767,2.767,0,0,1-2.965-3.036v-.827a2.957,2.957,0,1,1,5.907,0v.685C406.139,132.924,406.044,133.031,405.891,133.031Zm-1.618-1.229c0-.874-.4-1.311-1.063-1.311s-1.087.449-1.087,1.311v.047h2.15Z" transform="translate(-384.942 -126.935)" fill="#fff"/>
      <path id="Trazado_11" data-name="Trazado 11" d="M431.343,135.819h-1.429a.247.247,0,0,1-.236-.248v-3.934c0-.827-.153-1.1-.874-1.1a2.534,2.534,0,0,0-1.111.378v4.654a.247.247,0,0,1-.236.248h-1.429a.258.258,0,0,1-.248-.248v-6.284a.237.237,0,0,1,.236-.236h1.323a.237.237,0,0,1,.236.236v.283a2.976,2.976,0,0,1,1.926-.614c1.713,0,2.091,1.193,2.091,2.682v3.934A.258.258,0,0,1,431.343,135.819Z" transform="translate(-403.341 -126.935)" fill="#fff"/>
      <path id="Trazado_12" data-name="Trazado 12" d="M455.312,135.747a6.512,6.512,0,0,1-1.571.177c-1.666,0-2.752-1.063-2.752-2.989v-.992c0-1.925,1.087-2.989,2.752-2.989a6.526,6.526,0,0,1,1.571.177c.177.047.248.095.248.272v1.051a.212.212,0,0,1-.224.2h-.023a11.346,11.346,0,0,0-1.441-.083c-.532,0-.969.319-.969,1.37v.992c0,1.052.437,1.37.969,1.37a11.284,11.284,0,0,0,1.441-.083h.023a.213.213,0,0,1,.224.2v1.052C455.56,135.653,455.489,135.7,455.312,135.747Z" transform="translate(-421.496 -126.935)" fill="#fff"/>
      <path id="Trazado_13" data-name="Trazado 13" d="M476.464,129.564l-1.985,6.958c-.366,1.276-.851,1.925-2.587,1.925a6.161,6.161,0,0,1-1.429-.189c-.13-.047-.248-.083-.248-.213v-.957a.227.227,0,0,1,.236-.224h.023c.39.024,1.087.094,1.477.094.425,0,.638-.142.779-.614l.106-.367h-.177c-.437,0-.8-.071-1.1-1.1L470,129.564a.229.229,0,0,1-.012-.083c0-.118.071-.189.236-.189H471.8a.251.251,0,0,1,.225.224l1.063,4.442c.036.165.071.224.142.224h.106l1.1-4.666a.264.264,0,0,1,.248-.224h1.571a.222.222,0,0,1,.224.213C476.476,129.529,476.464,129.541,476.464,129.564Z" transform="translate(-435.18 -127.178)" fill="#fff"/>
    </g>
  </g>
</svg>
