<svg id="Icon_simple-tiktok" data-name="Icon simple-tiktok" xmlns="http://www.w3.org/2000/svg" width="23.524" height="27.077" viewBox="0 0 23.524 27.077">
  <path id="Icon_simple-tiktok-2" data-name="Icon simple-tiktok" d="M14.723.023C16.2,0,17.668.011,19.134,0a7.027,7.027,0,0,0,1.974,4.7,7.956,7.956,0,0,0,4.783,2.019v4.547a12.076,12.076,0,0,1-4.738-1.094,13.939,13.939,0,0,1-1.828-1.049c-.011,3.294.011,6.589-.023,9.872a8.617,8.617,0,0,1-1.523,4.445,8.4,8.4,0,0,1-6.668,3.621A8.226,8.226,0,0,1,6.51,25.9a8.508,8.508,0,0,1-4.118-6.442c-.023-.564-.034-1.128-.011-1.681a8.493,8.493,0,0,1,9.849-7.536c.023,1.67-.045,3.339-.045,5.009a3.871,3.871,0,0,0-4.941,2.392,4.475,4.475,0,0,0-.158,1.816A3.84,3.84,0,0,0,11.034,22.7a3.79,3.79,0,0,0,3.125-1.816,2.6,2.6,0,0,0,.463-1.2c.113-2.019.068-4.028.079-6.047.011-4.547-.011-9.082.023-13.617Z" transform="translate(-2.369)" fill="#fff"/>
</svg>
